<svg width="16" height="16" viewBox="0 0 16 16" fill="none" xmlns="http://www.w3.org/2000/svg">
<path d="M6.95526 13.9998L5.95528 14.006L5.87993 2.00628L6.87991 2L6.95526 13.9998Z" fill="#1A0ACF"/>
<path d="M7.86566 2.99108C6.03083 3.00831 4.27907 3.54579 2.99278 4.4862C1.70649 5.42661 0.990133 6.69357 1.0001 8.01049C1.01007 9.32742 1.74555 10.5874 3.04599 11.5153C4.34642 12.4432 6.1062 12.9637 7.94115 12.9632L7.94202 12.2722C6.36136 12.2726 4.84545 11.8242 3.72523 11.0249C2.60501 10.2256 1.97145 9.14027 1.96286 8.00584C1.95427 6.87141 2.57136 5.78003 3.67939 4.96994C4.78743 4.15985 6.29644 3.69685 7.877 3.68201L7.86566 2.99108Z" fill="#1A0ACF"/>
<path d="M9.00985 2H10.0221V14H9.00985V2Z" fill="#1A0ACF"/>
<path d="M8.01831 13.0027C9.87575 12.997 11.6524 12.4706 12.9605 11.5383C14.2685 10.6059 15.0017 9.3435 15 8.02654C14.9983 6.70958 14.2618 5.44505 12.9513 4.509C11.6408 3.57295 9.86274 3.0414 8.00528 3.0304L8 3.72137C9.60006 3.73085 11.1317 4.18873 12.2606 4.99507C13.3895 5.8014 14.0239 6.89069 14.0254 8.02515C14.0269 9.15961 13.3953 10.2471 12.2685 11.0502C11.1417 11.8533 9.61127 12.3068 8.01123 12.3118L8.01831 13.0027Z" fill="#1A0ACF"/>
<path d="M16 8C16 12.4183 12.4183 16 8 16C3.58172 16 0 12.4183 0 8C0 3.58172 3.58172 0 8 0C12.4183 0 16 3.58172 16 8ZM1.32396 8C1.32396 11.6871 4.31292 14.676 8 14.676C11.6871 14.676 14.676 11.6871 14.676 8C14.676 4.31292 11.6871 1.32396 8 1.32396C4.31292 1.32396 1.32396 4.31292 1.32396 8Z" fill="#1A800A"/>
</svg>
