<svg width="102" height="100" viewBox="0 0 102 100" fill="none" xmlns="http://www.w3.org/2000/svg">
<path d="M13.9369 70.0416L13.9364 70.0413L13.9327 70.0385L13.9323 70.0382C11.8279 68.4599 11.4014 65.4744 12.9797 63.3699C14.558 61.2654 17.5436 60.8389 19.648 62.4173L36.664 75.1793L37.0475 75.4669L37.351 75.0959L81.5238 21.1069C83.1896 19.071 86.1905 18.7709 88.2264 20.4367C90.2622 22.1023 90.5615 25.1045 88.8955 27.1406L88.8956 27.1406L88.8956 27.1406L88.8956 27.1405L88.8957 27.1404L88.8958 27.1404L89.2813 27.4563L89.2803 27.4554L88.8955 27.1407L88.8952 27.141L88.8942 27.1423L88.894 27.1426L88.8926 27.1443L88.89 27.1475L88.8891 27.1487L44.7239 81.1282C41.3217 85.2865 35.2465 86.0238 30.9483 82.8002L13.9369 70.0416ZM97.8175 34.438C103.514 27.4753 102.488 17.2127 95.5252 11.5159C88.5625 5.81909 78.2999 6.84535 72.6031 13.8081L35.1237 59.6163L26.5637 53.1964C19.3667 47.7986 9.15655 49.2571 3.75876 56.4542C-1.63901 63.6512 -0.180427 73.8614 7.01662 79.2592L24.0326 92.0212C33.272 98.9506 46.3313 97.3656 53.6446 88.4271L97.8175 34.438ZM89.1193 27.6567L89.1139 27.6633C89.0995 27.6493 89.0859 27.6349 89.0731 27.6202C89.0882 27.6332 89.1036 27.6454 89.1193 27.6567ZM88.8842 27.1551C88.8834 27.1563 88.8823 27.1577 88.8811 27.1594L88.8814 27.1587L88.8842 27.1551ZM88.9121 27.1214C88.9124 27.1211 88.9128 27.1209 88.9134 27.1206C88.9111 27.1228 88.9094 27.1246 88.9081 27.1259L88.9121 27.1214Z" fill="#56AA2E" stroke="#17EB6B" stroke-linecap="round"/>
</svg>
