<svg width="100" height="100" viewBox="0 0 100 100" fill="none" xmlns="http://www.w3.org/2000/svg">
<path fill-rule="evenodd" clip-rule="evenodd" d="M20.6067 29.1666C20.6822 29.1667 20.7577 29.1667 20.8334 29.1667H79.1667C79.2423 29.1667 79.3179 29.1667 79.3934 29.1666C81.1603 29.1663 82.8775 29.166 84.2939 29.3564C85.8905 29.571 87.7125 30.094 89.2259 31.6074C90.7393 33.1208 91.2623 34.9428 91.477 36.5395C91.6674 37.9558 91.6671 39.6731 91.6667 41.44C91.6667 41.5155 91.6667 41.5911 91.6667 41.6667V48.027C91.6668 48.9022 91.6669 49.7548 91.6174 50.4801C91.5633 51.2733 91.4363 52.2139 91.0324 53.189C90.1866 55.2309 88.5643 56.8532 86.5224 57.699C85.5472 58.1029 84.6067 58.2299 83.8135 58.284C83.0881 58.3335 82.2355 58.3334 81.3604 58.3333L81.25 58.3333C80.2223 58.3333 79.6602 58.3356 79.2538 58.3633C79.235 58.3646 79.2172 58.3659 79.2006 58.3672C79.1993 58.3838 79.198 58.4016 79.1967 58.4205C79.169 58.8268 79.1667 59.389 79.1667 60.4167V75C79.1667 75.0756 79.1667 75.1512 79.1667 75.2266C79.1671 76.9936 79.1674 78.7108 78.977 80.1272C78.7623 81.7239 78.2393 83.5458 76.7259 85.0592C75.2125 86.5726 73.3905 87.0956 71.7939 87.3103C70.3776 87.5007 68.6604 87.5004 66.8934 87.5C66.8179 87.5 66.7424 87.5 66.6667 87.5H33.3334C33.2577 87.5 33.1821 87.5 33.1067 87.5C31.3397 87.5004 29.6225 87.5007 28.2062 87.3103C26.6095 87.0956 24.7875 86.5726 23.2741 85.0592C21.7608 83.5458 21.2377 81.7239 21.0231 80.1272C20.8327 78.7109 20.833 76.9937 20.8333 75.2267C20.8334 75.1512 20.8334 75.0757 20.8334 75V60.4167C20.8334 59.389 20.8311 58.8268 20.8034 58.4205C20.8021 58.4016 20.8008 58.3838 20.7995 58.3672C20.7829 58.3659 20.7651 58.3646 20.7462 58.3633C20.3399 58.3356 19.7778 58.3333 18.75 58.3333L18.6397 58.3333C17.7645 58.3334 16.9119 58.3335 16.1866 58.284C15.3934 58.2299 14.4529 58.1029 13.4777 57.699C11.4358 56.8532 9.81349 55.2309 8.96771 53.189C8.56378 52.2139 8.4368 51.2733 8.38268 50.4801C8.33319 49.7548 8.33328 48.9022 8.33337 48.027C8.33337 47.9902 8.33337 47.9535 8.33337 47.9167V41.6667C8.33337 41.591 8.33336 41.5155 8.33334 41.44C8.333 39.673 8.33266 37.9558 8.52308 36.5395C8.73774 34.9428 9.26075 33.1208 10.7741 31.6074C12.2875 30.094 14.1095 29.571 15.7062 29.3564C17.1225 29.166 18.8397 29.1663 20.6067 29.1666ZM16.7863 37.6196C16.7849 37.6295 16.7835 37.6396 16.7821 37.6499C16.6756 38.4424 16.6667 39.5847 16.6667 41.6667V47.9167C16.6667 48.9444 16.669 49.5065 16.6967 49.9129C16.698 49.9318 16.6993 49.9495 16.7006 49.9661C16.7172 49.9674 16.735 49.9687 16.7539 49.97C17.1602 49.9977 17.7223 50 18.75 50C18.7868 50 18.8236 50 18.8603 50C19.7355 49.9999 20.5881 49.9998 21.3135 50.0493C22.1067 50.1034 23.0472 50.2304 24.0224 50.6343C26.0643 51.4801 27.6866 53.1024 28.5324 55.1443C28.9363 56.1195 29.0633 57.06 29.1174 57.8532C29.1669 58.5786 29.1668 59.4312 29.1667 60.3063L29.1667 75C29.1667 77.082 29.1756 78.2243 29.2821 79.0168C29.2835 79.0271 29.2849 79.0372 29.2863 79.0471C29.2962 79.0485 29.3063 79.0499 29.3166 79.0513C30.1091 79.1578 31.2514 79.1667 33.3334 79.1667H66.6667C68.7487 79.1667 69.891 79.1578 70.6835 79.0513C70.6938 79.0499 70.7039 79.0485 70.7138 79.0471C70.7152 79.0372 70.7166 79.0271 70.718 79.0168C70.8245 78.2243 70.8334 77.082 70.8334 75L70.8334 60.3063C70.8333 59.4312 70.8332 58.5786 70.8827 57.8532C70.9368 57.06 71.0638 56.1195 71.4677 55.1443C72.3135 53.1024 73.9358 51.4801 75.9777 50.6343C76.9529 50.2304 77.8934 50.1034 78.6866 50.0493C79.4119 49.9998 80.2646 49.9999 81.1397 50L81.25 50C82.2778 50 82.8399 49.9977 83.2462 49.97C83.2651 49.9687 83.2829 49.9674 83.2995 49.9661C83.3008 49.9495 83.3021 49.9317 83.3034 49.9129C83.3311 49.5065 83.3334 48.9444 83.3334 47.9167V41.6667C83.3334 39.5847 83.3245 38.4424 83.218 37.6499C83.2166 37.6396 83.2152 37.6295 83.2138 37.6196C83.2039 37.6182 83.1938 37.6168 83.1835 37.6154C82.391 37.5089 81.2487 37.5 79.1667 37.5H20.8334C18.7514 37.5 17.6091 37.5089 16.8166 37.6154C16.8063 37.6168 16.7962 37.6182 16.7863 37.6196Z" fill="#982C6D" stroke="#64236F"/>
<path d="M17.1667 54.1667C17.1667 52.1416 18.8083 50.5 20.8334 50.5H79.1667C81.1917 50.5 82.8333 52.1416 82.8333 54.1667C82.8333 56.1917 81.1917 57.8333 79.1667 57.8333H20.8334C18.8083 57.8333 17.1667 56.1917 17.1667 54.1667Z" fill="#982C6D" stroke="#64236F" stroke-linecap="round"/>
<path d="M50 25.5C52.0251 25.5 53.6667 27.1416 53.6667 29.1667L53.6667 83.3333C53.6667 85.3584 52.0251 87 50 87C47.975 87 46.3334 85.3584 46.3334 83.3333L46.3334 29.1667C46.3334 27.1416 47.975 25.5 50 25.5Z" fill="#982C6D" stroke="#64236F" stroke-linecap="round"/>
<path d="M29.3597 19.2071C26.9689 18.4102 24.5 20.1897 24.5 22.7098V23.4686C24.5 25.2932 25.6676 26.9131 27.3986 27.4901L34.4929 29.8548C36.414 30.4952 37.4522 32.5717 36.8119 34.4928C36.1715 36.414 34.095 37.4522 32.1739 36.8118L25.0795 34.4471C20.3541 32.8719 17.1667 28.4497 17.1667 23.4686V22.7098C17.1667 15.1843 24.5394 9.87033 31.6787 12.2501C38.1796 14.4171 44.0866 18.0678 48.9321 22.9133L52.5927 26.5739C54.0247 28.0059 54.0247 30.3275 52.5927 31.7594C51.1608 33.1913 48.8392 33.1913 47.4073 31.7594L43.7466 28.0987C39.7062 24.0583 34.7805 21.0141 29.3597 19.2071Z" fill="#982C6D" stroke="#64236F" stroke-linecap="round"/>
<path d="M70.6403 19.2071C73.0311 18.4102 75.5 20.1897 75.5 22.7098V23.4686C75.5 25.2932 74.3324 26.9131 72.6015 27.4901L65.5071 29.8548C63.586 30.4952 62.5478 32.5717 63.1881 34.4928C63.8285 36.414 65.905 37.4522 67.8261 36.8118L74.9205 34.4471C79.6459 32.8719 82.8333 28.4497 82.8333 23.4686V22.7098C82.8333 15.1843 75.4606 9.87033 68.3213 12.2501C61.8204 14.4171 55.9134 18.0678 51.0679 22.9133L47.4073 26.5739C45.9753 28.0059 45.9753 30.3275 47.4073 31.7594C48.8392 33.1913 51.1608 33.1913 52.5927 31.7594L56.2534 28.0987C60.2938 24.0583 65.2195 21.0141 70.6403 19.2071Z" fill="#982C6D" stroke="#64236F" stroke-linecap="round"/>
</svg>
